<?xml version="1.0" encoding="utf-8"?>
<!-- Generator: Adobe Illustrator 24.0.3, SVG Export Plug-In . SVG Version: 6.00 Build 0)  -->
<svg version="1.1" id="Layer_1" xmlns="http://www.w3.org/2000/svg" xmlns:xlink="http://www.w3.org/1999/xlink" x="0px" y="0px"
	 viewBox="0 0 1492 367" style="enable-background:new 0 0 1492 367;" xml:space="preserve">
<style type="text/css">
	.st0{enable-background:new    ;}
	.st1{fill:#FFFFFF;}
</style>
<g id="Group_23" transform="translate(-281 -298.246)">
	<g class="st0">
		<path class="st1" d="M420.8,323.8c13.1,11.8,19.6,27.8,19.6,48.1c0,11.7-2.3,22.6-6.8,32.7c-4.5,10.2-11.8,18.5-22,25
			c-10.2,6.5-23.3,9.8-39.4,9.8h-27.6v61.7h-38.4v-195h59.1C389.3,306.2,407.7,312.1,420.8,323.8z M389.5,397.2
			c4.4-3.3,7.6-7.1,9.5-11.5c1.9-4.4,2.9-8.7,2.9-12.7c0-6.9-2-13.6-6.1-20c-4.1-6.4-11.9-9.7-23.6-9.7h-27.6v58.8h27.3
			C379.3,402.1,385.1,400.5,389.5,397.2z"/>
		<path class="st1" d="M513.3,306.2v157.9H605v37.1H474.9v-195H513.3z"/>
		<path class="st1" d="M741.2,463.1h-64.7l-15.9,38.2h-37.9l88-202.7h2.1l88,202.7h-44.5L741.2,463.1z M728.5,430.8l-18.8-47.4
			L690,430.8H728.5z"/>
		<path class="st1" d="M1004.9,306.2v203h-1.1L867.3,386l0.8,115.3h-39V298.5h1.6L967,423.6l-0.8-117.4H1004.9z"/>
		<path class="st1" d="M1230.9,306.2v203h-1.1L1093.4,386l0.8,115.3h-39V298.5h1.6L1193,423.6l-0.8-117.4H1230.9z"/>
		<path class="st1" d="M1319.7,306.2v195h-38.4v-195H1319.7z"/>
		<path class="st1" d="M1545.7,306.2v203h-1.1L1408.2,386l0.8,115.3h-39V298.5h1.6l136.2,125.1l-0.8-117.4H1545.7z"/>
		<path class="st1" d="M1738.2,491.6c-7.7,3.4-16.2,6.3-25.4,8.5c-9.3,2.2-17.7,3.3-25.3,3.3c-20.7,0-38.8-4-54.5-12.1
			c-15.6-8-27.7-19.2-36.2-33.4c-8.5-14.2-12.7-30.4-12.7-48.6c0-22.8,4.5-42.1,13.5-57.9c9-15.8,21.1-27.6,36.3-35.5
			c15.2-7.9,32-11.8,50.3-11.8c11.8,0,23,1.3,33.4,4c10.4,2.6,19.6,6.1,27.6,10.3l-12.5,35.8c-5.1-2.8-12.1-5.4-21.1-7.8
			c-8.9-2.4-16.4-3.6-22.4-3.6c-21.2,0-37.4,5.3-48.6,15.9c-11.2,10.6-16.8,26.3-16.8,47.2c0,12,2.7,22.5,8.2,31.4
			c5.5,8.9,13.1,15.8,22.9,20.5c9.8,4.8,21,7.2,33.5,7.2c12,0,20.9-1.7,26.8-5v-23.6h-33.7v-37.1h72.6v82.4
			C1751.3,484.8,1745.9,488.1,1738.2,491.6z"/>
	</g>
	<g class="st0">
		<path class="st1" d="M307.2,527.2H338c13.2,0,24,2.5,32.5,7.6c8.5,5.1,14.7,11.7,18.5,19.7c3.9,8.1,5.8,16.7,5.8,26
			c0,9.9-2.3,18.6-7,26.2c-4.7,7.6-10.9,13.4-18.8,17.4c-7.9,4.1-16.5,6.1-26,6.1h-35.8V527.2z M339.5,610.6
			c10.5,0,18.9-2.7,25.1-8.1c6.2-5.4,9.2-13.2,9.2-23.4c0-8.2-1.7-14.7-5.1-19.6c-3.4-4.9-7.4-8.2-11.9-10.1
			c-4.5-1.9-8.8-2.8-12.8-2.8h-16.5v64H339.5z"/>
		<path class="st1" d="M415.9,552.7c4.7-8.1,11.1-14.6,19.2-19.4c8.1-4.8,16.8-7.2,26.2-7.2c9.4,0,18.2,2.4,26.2,7.2
			c8.1,4.8,14.5,11.3,19.3,19.4c4.8,8.1,7.2,16.8,7.2,26.2c0,9.5-2.4,18.3-7.2,26.3c-4.8,8-11.2,14.4-19.3,19.1
			c-8.1,4.7-16.8,7.1-26.2,7.1c-9.5,0-18.3-2.4-26.3-7.1c-8-4.7-14.4-11.1-19.1-19.1c-4.7-8-7.1-16.8-7.1-26.3
			C408.8,569.5,411.2,560.8,415.9,552.7z M434.1,595.4c2.8,5,6.7,9,11.6,12c4.9,2.9,10.3,4.4,16.3,4.4c5.8,0,11.1-1.5,15.8-4.4
			c4.8-2.9,8.5-6.9,11.2-11.9c2.7-5,4.1-10.5,4.1-16.6c0-6.2-1.4-11.8-4.2-16.8c-2.8-5-6.6-9-11.4-12c-4.8-2.9-10.1-4.4-16-4.4
			c-5.9,0-11.2,1.5-16,4.4c-4.8,2.9-8.6,6.9-11.4,12c-2.8,5-4.2,10.6-4.2,16.8C429.8,584.8,431.3,590.3,434.1,595.4z"/>
		<path class="st1" d="M627.2,527.2v107.2h-0.6l-72.1-65.1l0.4,60.9h-20.6V523.1h0.8l72,66.1l-0.4-62H627.2z"/>
		<path class="st1" d="M724.1,527.2v19.6h-50v22h44.2v19.6h-44.2v22.3h51.9v19.6h-72.2v-103H724.1z"/>
		<path class="st1" d="M792.6,527.2h30.8c13.2,0,24,2.5,32.5,7.6c8.5,5.1,14.7,11.7,18.5,19.7c3.9,8.1,5.8,16.7,5.8,26
			c0,9.9-2.3,18.6-7,26.2c-4.7,7.6-10.9,13.4-18.8,17.4c-7.9,4.1-16.5,6.1-26,6.1h-35.8V527.2z M824.9,610.6
			c10.5,0,18.9-2.7,25.1-8.1c6.2-5.4,9.2-13.2,9.2-23.4c0-8.2-1.7-14.7-5.1-19.6c-3.4-4.9-7.4-8.2-11.9-10.1
			c-4.5-1.9-8.8-2.8-12.8-2.8h-16.5v64H824.9z"/>
		<path class="st1" d="M920.8,527.2v103h-20.3v-103H920.8z"/>
		<path class="st1" d="M1011.8,527.2v19.6h-44.1v23.4h38.2v19.6h-38.2v40.5h-20.3v-103H1011.8z"/>
		<path class="st1" d="M1095.8,527.2v19.6h-44.1v23.4h38.2v19.6h-38.2v40.5h-20.3v-103H1095.8z"/>
		<path class="st1" d="M1185.7,527.2v19.6h-50v22h44.2v19.6h-44.2v22.3h51.9v19.6h-72.2v-103H1185.7z"/>
		<path class="st1" d="M1264.2,630.2l-21.7-32.8h-13.6v32.8h-20.3v-103h31.2c12.8,0,22.7,3.1,29.8,9.3c7,6.2,10.6,14.7,10.6,25.4
			c0,6.3-1.3,12.3-4,17.9c-2.7,5.6-6.7,9.9-12.2,13.1l23.9,37.4H1264.2z M1228.9,577.9h14.4c5.5,0,9.5-1.6,12-4.8
			c2.5-3.2,3.8-6.7,3.8-10.4c0-3.7-1.1-7.3-3.2-10.7c-2.1-3.4-6.3-5.1-12.5-5.1h-14.6V577.9z"/>
		<path class="st1" d="M1375,527.2v19.6h-50v22h44.2v19.6H1325v22.3h51.9v19.6h-72.2v-103H1375z"/>
		<path class="st1" d="M1490.7,527.2v107.2h-0.6l-72.1-65.1l0.4,60.9h-20.6V523.1h0.8l72,66.1l-0.4-62H1490.7z"/>
		<path class="st1" d="M1579.8,527.2v19.6h-25.1v83.4h-20.3v-83.4h-24.1v-19.6H1579.8z"/>
		<path class="st1" d="M1619.7,527.2v83.4h48.4v19.6h-68.7v-103H1619.7z"/>
		<path class="st1" d="M1758,527.2l-38.6,71v32.1h-20.3v-32.1l-37.9-71h25.1l23.7,47.6l23.1-47.6H1758z"/>
	</g>
</g>
</svg>
